# xmcd CD database file
#
# Track frame offsets:
#	150
#	19027
#	34135
#	56230
#	75442
#	91710
#	110422
#	133845
#	147915
#	168770
#	186677
#	209710
#
# Disc length: 2992 seconds
#
# Revision: 0
# Processed by: cddbd v1.5PL3 Copyright (c) Steve Scherf et al.
# Submitted via: CDex 1.50beta8
#
DISCID=a80bae0c
DTITLE=高橋幸宏 - Heart of Hurt
DYEAR=1992
DGENRE=Folk-Rock
TTITLE0=1%の関係
TTITLE1=君といる
TTITLE2=蜉蝣
TTITLE3=前兆
TTITLE4=今日の空
TTITLE5=君にサープライズ
TTITLE6=ちょっとツラインダ
TTITLE7=saravah!
TTITLE8=DRIP DRY EYES
TTITLE9=4:30amのイエティ
TTITLE10=LEFT BANK
TTITLE11=元気ならうれしいね
EXTD=YEAR: 1992
EXTT0=
EXTT1=
EXTT2=
EXTT3=
EXTT4=
EXTT5=
EXTT6=
EXTT7=
EXTT8=
EXTT9=
EXTT10=
EXTT11=
PLAYORDER=
